<svg width="24" height="24" viewBox="0 0 24 24" fill="none" xmlns="http://www.w3.org/2000/svg">
<path fill-rule="evenodd" clip-rule="evenodd" d="M18.885 9.086C18.953 8.767 19 8.402 19 8C19 4.686 15.866 2 12 2C8.134 2 5 4.686 5 8C5 8.718 5.114 9.407 5.371 10.046C5.494 10.351 5.583 10.672 5.583 11.002V12.042C5.583 12.847 6.236 13.5 7.042 13.5H7.25C7.94 13.5 8.5 14.06 8.5 14.75C8.5 15.44 9.06 16 9.75 16H14.25C14.94 16 15.5 15.44 15.5 14.75C15.5 14.06 16.06 13.5 16.75 13.5H16.958C17.764 13.5 18.417 12.847 18.417 12.042V12C18.417 11.26 18.653 10.164 18.827 9.361L18.885 9.086ZM9.5 11C9.89782 11 10.2794 10.842 10.5607 10.5607C10.842 10.2794 11 9.89782 11 9.5C11 9.10218 10.842 8.72064 10.5607 8.43934C10.2794 8.15804 9.89782 8 9.5 8C9.10218 8 8.72064 8.15804 8.43934 8.43934C8.15804 8.72064 8 9.10218 8 9.5C8 9.89782 8.15804 10.2794 8.43934 10.5607C8.72064 10.842 9.10218 11 9.5 11ZM16 9.5C16 9.89782 15.842 10.2794 15.5607 10.5607C15.2794 10.842 14.8978 11 14.5 11C14.1022 11 13.7206 10.842 13.4393 10.5607C13.158 10.2794 13 9.89782 13 9.5C13 9.10218 13.158 8.72064 13.4393 8.43934C13.7206 8.15804 14.1022 8 14.5 8C14.8978 8 15.2794 8.15804 15.5607 8.43934C15.842 8.72064 16 9.10218 16 9.5Z" fill="#FA5F5F"/>
<path d="M4.7251 17.9621L8.3601 19.0001L4.7251 20.0381L5.2751 21.9621L12.0001 20.0401L18.7251 21.9621L19.2751 20.0381L15.6401 19.0001L19.2751 17.9621L18.7251 16.0381L12.0001 17.9601L5.2751 16.0381L4.7251 17.9621Z" fill="#FA5F5F"/>
</svg>
